<svg width="310" height="63" viewBox="0 0 310 63" fill="none" xmlns="http://www.w3.org/2000/svg">
<path d="M12.7124 20.8036L27.7712 5.69492C27.9158 5.54939 27.997 5.35257 27.997 5.14743C27.997 4.94229 27.9158 4.74548 27.7712 4.59995L23.4265 0.229395C23.2833 0.0852336 23.0892 0.00290788 22.8859 7.55649e-05C22.6827 -0.00275675 22.4864 0.0741292 22.3392 0.214243C22.1258 0.417037 21.9142 0.622163 21.7066 0.827287C17.545 4.97446 13.3841 9.1226 9.22364 13.2717C7.86794 14.6206 6.50639 15.9638 5.13902 17.3014C3.01276 19.3818 2.86526 22.7791 4.86034 25.0052C5.67656 25.9143 6.57791 26.7435 7.44603 27.6042C9.18147 29.3256 10.9191 31.0451 12.6588 32.7626C14.76 34.843 16.8604 36.9246 18.96 39.0073C20.0666 40.1036 21.1743 41.1992 22.2832 42.294L22.2914 42.3015C22.4375 42.444 22.634 42.5231 22.8382 42.5216C23.0423 42.52 23.2376 42.438 23.3816 42.2934L27.7916 37.889C27.864 37.8165 27.9213 37.7304 27.9603 37.6357C27.9994 37.541 28.0193 37.4395 28.019 37.337C28.0186 37.2346 27.9981 37.1332 27.9584 37.0387C27.9188 36.9443 27.8609 36.8585 27.7881 36.7865L12.7177 21.9062C12.6445 21.8343 12.5864 21.7487 12.5465 21.6543C12.5067 21.5599 12.4859 21.4585 12.4854 21.356C12.4849 21.2535 12.5047 21.152 12.5437 21.0572C12.5826 20.9624 12.64 20.8762 12.7124 20.8036Z" fill="#171717"/>
<g clip-path="url(#clip0_3_6)">
<path d="M12.7124 20.8036L27.7712 5.69492C27.9158 5.54939 27.997 5.35257 27.997 5.14743C27.997 4.94229 27.9158 4.74548 27.7712 4.59995L23.4265 0.229395C23.2833 0.0852336 23.0892 0.00290788 22.886 7.55649e-05C22.6827 -0.00275675 22.4864 0.0741292 22.3392 0.214243C22.1258 0.417037 21.9142 0.622163 21.7066 0.827287C17.545 4.97446 13.3841 9.1226 9.22365 13.2717C7.86794 14.6206 6.5064 15.9638 5.13903 17.3014C3.01277 19.3818 2.86526 22.7791 4.86035 25.0052C5.67657 25.9143 6.57792 26.7435 7.44603 27.6042C9.18148 29.3256 10.9191 31.0451 12.6588 32.7626C14.76 34.843 16.8604 36.9246 18.96 39.0073C20.0666 40.1036 21.1743 41.1992 22.2832 42.294L22.2914 42.3015C22.4375 42.444 22.634 42.5231 22.8382 42.5216C23.0423 42.52 23.2376 42.438 23.3816 42.2934L27.7916 37.889C27.864 37.8165 27.9213 37.7304 27.9603 37.6357C27.9994 37.541 28.0193 37.4395 28.019 37.337C28.0186 37.2346 27.9981 37.1332 27.9585 37.0387C27.9188 36.9443 27.8609 36.8585 27.7881 36.7865L12.7177 21.9062C12.6446 21.8343 12.5864 21.7487 12.5465 21.6543C12.5067 21.5599 12.4859 21.4585 12.4854 21.356C12.4849 21.2535 12.5047 21.152 12.5437 21.0572C12.5827 20.9624 12.64 20.8762 12.7124 20.8036Z" fill="url(#paint0_linear_3_6)"/>
</g>
<g clip-path="url(#clip1_3_6)">
<path d="M12.7124 20.8036L27.7712 5.69492C27.9158 5.54939 27.997 5.35257 27.997 5.14743C27.997 4.94229 27.9158 4.74548 27.7712 4.59995L23.4265 0.229395C23.2833 0.0852336 23.0892 0.00290788 22.8859 7.55649e-05C22.6827 -0.00275675 22.4864 0.0741292 22.3392 0.214243C22.1258 0.417037 21.9142 0.622163 21.7066 0.827287C17.545 4.97446 13.3841 9.1226 9.22364 13.2717C7.86794 14.6206 6.50639 15.9638 5.13902 17.3014C3.01276 19.3818 2.86526 22.7791 4.86034 25.0052C5.67656 25.9143 6.57791 26.7435 7.44603 27.6042C9.18147 29.3256 10.9191 31.0451 12.6588 32.7626C14.76 34.843 16.8604 36.9246 18.96 39.0073C20.0666 40.1036 21.1743 41.1992 22.2832 42.294L22.2914 42.3015C22.4375 42.444 22.634 42.5231 22.8382 42.5216C23.0423 42.52 23.2376 42.438 23.3816 42.2934L27.7916 37.889C27.864 37.8165 27.9213 37.7304 27.9603 37.6357C27.9994 37.541 28.0193 37.4395 28.019 37.337C28.0186 37.2346 27.9981 37.1332 27.9584 37.0387C27.9188 36.9443 27.8609 36.8585 27.7881 36.7865L12.7177 21.9062C12.6445 21.8343 12.5864 21.7487 12.5465 21.6543C12.5067 21.5599 12.4859 21.4585 12.4854 21.356C12.4849 21.2535 12.5047 21.152 12.5437 21.0572C12.5826 20.9624 12.64 20.8762 12.7124 20.8036Z" fill="#171717"/>
</g>
<path d="M43.5169 35.4617L28.4582 20.3529C28.3136 20.2074 28.2324 20.0106 28.2324 19.8055C28.2324 19.6003 28.3136 19.4035 28.4582 19.258L32.8028 14.8874C32.9461 14.7433 33.1402 14.6609 33.3434 14.6581C33.5467 14.6553 33.743 14.7321 33.8902 14.8723C34.1036 15.0751 34.3152 15.2802 34.5227 15.4853C38.6843 19.6325 42.8453 23.7806 47.0057 27.9297C48.3614 29.2786 49.723 30.6218 51.0903 31.9594C53.2166 34.0398 53.3641 37.4372 51.369 39.6632C50.5528 40.5723 49.6514 41.4015 48.7833 42.2623C47.0479 43.9837 45.3103 45.7031 43.5706 47.4207C41.4694 49.5011 39.369 51.5826 37.2693 53.6653C36.1628 54.7617 35.055 55.8572 33.9461 56.952L33.938 56.9596C33.7918 57.102 33.5953 57.1811 33.3912 57.1796C33.187 57.178 32.9917 57.096 32.8477 56.9514L28.4378 52.547C28.3654 52.4745 28.308 52.3884 28.269 52.2937C28.23 52.199 28.2101 52.0975 28.2104 51.995C28.2107 51.8926 28.2313 51.7912 28.2709 51.6968C28.3105 51.6023 28.3684 51.5166 28.4413 51.4445L43.5117 36.5642C43.5848 36.4924 43.643 36.4067 43.6828 36.3123C43.7227 36.2179 43.7435 36.1165 43.744 36.014C43.7444 35.9115 43.7246 35.81 43.6857 35.7152C43.6467 35.6204 43.5894 35.5342 43.5169 35.4617Z" fill="#171717"/>
<path d="M5.77903e-07 62.1693V58.5266C-0.000208991 58.3806 0.0565868 58.2404 0.158295 58.1357C0.260003 58.031 0.398585 57.9701 0.544536 57.966C3.94644 57.8739 22.0823 57.8413 25.3869 57.9217C25.5276 57.9253 25.6619 57.9817 25.7629 58.0798C25.8639 58.1778 25.9243 58.3103 25.932 58.4508C25.9856 59.3739 25.9903 61.2305 25.9419 62.2002C25.9343 62.3434 25.8719 62.4783 25.7676 62.5769C25.6633 62.6755 25.5252 62.7302 25.3816 62.7299H0.563193C0.489322 62.7303 0.416105 62.716 0.347754 62.688C0.279403 62.66 0.217268 62.6188 0.164924 62.5667C0.112581 62.5146 0.0710598 62.4526 0.0427554 62.3844C0.014451 62.3162 -7.7292e-05 62.2431 5.77903e-07 62.1693Z" fill="#171717"/>
<path d="M308.415 21.7204C308.785 21.8703 309.022 22.233 309.022 22.6322V24.7878C309.022 25.5274 308.25 26.0048 307.576 25.7014C306.082 25.0296 304.115 24.3086 302.114 24.3086C298.96 24.3086 298.865 25.8542 298.865 26.075C298.865 27.3683 300.979 28.1253 304.07 29.2294C306.783 30.2072 310 31.8475 310 36.0112C310 40.995 304.795 42.3829 301.578 42.3829C298.512 42.3829 295.581 41.1661 294.424 40.5609C294.136 40.4103 293.976 40.1078 293.976 39.7829V37.4717C293.976 36.6856 294.839 36.2116 295.524 36.597C297.141 37.5069 299.104 38.3454 301.452 38.3454C302.146 38.3454 304.669 38.3138 304.669 36.3897C304.669 34.9702 303.439 34.5286 300.6 33.5508C297.509 32.4783 293.597 30.9642 293.597 26.422C293.597 23.1415 296.342 20.3026 301.736 20.3026C303.336 20.3026 305.327 20.4698 308.415 21.7204Z" fill="#171717"/>
<path d="M288.655 20.5865C289.207 20.5865 289.655 21.0342 289.655 21.5865V41.099C289.655 41.6513 289.207 42.099 288.655 42.099H285.229C284.677 42.099 284.229 41.6513 284.229 41.099V21.5865C284.229 21.0342 284.677 20.5865 285.229 20.5865H288.655Z" fill="black"/>
<path d="M261.243 21.5865C261.243 21.0342 261.691 20.5865 262.243 20.5865H269.507C271.463 20.5865 273.419 20.5865 275.154 21.659C276.289 22.416 277.961 24.1824 277.961 26.7374C277.961 28.854 276.999 30.1619 276.022 30.9698C275.378 31.5012 275.296 32.7165 275.814 33.3701C276.542 34.2868 277.068 35.3878 277.362 36.0743C277.961 37.3045 278.876 39.3232 279.444 40.5534L279.5 40.6741C279.812 41.3373 279.328 42.099 278.595 42.099H274.889C274.51 42.099 274.165 41.8862 274.006 41.5425C273.315 40.0522 271.876 36.778 271.495 36.0427C270.044 33.33 268.971 33.33 267.457 33.33C267.022 33.33 266.669 33.6831 266.669 34.1186V41.099C266.669 41.6513 266.221 42.099 265.669 42.099H262.243C261.691 42.099 261.243 41.6513 261.243 41.099V21.5865ZM269.381 24.4979H267.669C267.116 24.4979 266.669 24.9456 266.669 25.4979V28.4186C266.669 28.9709 267.116 29.4186 267.669 29.4186H268.908C270.296 29.3555 270.643 29.3555 271.211 29.0401C271.999 28.63 272.378 27.8415 272.378 26.9582C272.378 24.4979 269.981 24.4979 269.381 24.4979Z" fill="#171717"/>
<path d="M256.179 31.3743C256.179 36.3582 252.11 42.3829 243.751 42.3829C236.307 42.3829 231.481 36.989 231.481 31.3743C231.481 26.3589 235.645 20.3026 243.846 20.3026C251.448 20.3026 256.179 25.7596 256.179 31.3743ZM250.628 31.5005C250.628 27.4945 248.01 24.8764 243.814 24.8764C239.966 24.8764 237.064 27.2106 237.064 31.4689C237.064 36.6105 241.291 38.0299 243.846 38.0299C247.284 38.0299 250.628 35.7588 250.628 31.5005Z" fill="#171717"/>
<path d="M210.404 21.5865C210.404 21.0342 210.852 20.5865 211.404 20.5865H218.669C220.624 20.5865 222.58 20.5865 224.315 21.659C225.45 22.416 227.122 24.1824 227.122 26.7374C227.122 28.854 226.16 30.1619 225.183 30.9698C224.54 31.5012 224.457 32.7165 224.975 33.3701C225.703 34.2868 226.229 35.3878 226.523 36.0743C227.122 37.3045 228.037 39.3232 228.605 40.5534L228.661 40.6741C228.973 41.3373 228.489 42.099 227.756 42.099H224.05C223.671 42.099 223.326 41.8862 223.167 41.5425C222.476 40.0522 221.037 36.778 220.656 36.0427C219.205 33.33 218.132 33.33 216.618 33.33C216.183 33.33 215.83 33.683 215.83 34.1186V41.099C215.83 41.6513 215.382 42.099 214.83 42.099H211.404C210.852 42.099 210.404 41.6513 210.404 41.099V21.5865ZM218.542 24.4979H216.83C216.277 24.4979 215.83 24.9456 215.83 25.4979V28.4186C215.83 28.9709 216.277 29.4186 216.83 29.4186H218.069C219.457 29.3555 219.804 29.3555 220.372 29.0401C221.16 28.63 221.539 27.8415 221.539 26.9582C221.539 24.4979 219.142 24.4979 218.542 24.4979Z" fill="#171717"/>
<path d="M203.732 38.1561C204.285 38.1561 204.732 38.6038 204.732 39.1561V41.099C204.732 41.6513 204.285 42.099 203.732 42.099H189.866C189.314 42.099 188.866 41.6513 188.866 41.099V21.5865C188.866 21.0342 189.314 20.5865 189.866 20.5865H203.512C204.064 20.5865 204.512 21.0342 204.512 21.5865V23.5925C204.512 24.1448 204.064 24.5925 203.512 24.5925H195.292C194.739 24.5925 194.292 25.0402 194.292 25.5925V27.9455C194.292 28.4978 194.739 28.9455 195.292 28.9455H203.038C203.591 28.9455 204.038 29.3932 204.038 29.9455V31.983C204.038 32.5353 203.591 32.983 203.038 32.983H195.292C194.739 32.983 194.292 33.4307 194.292 33.983V37.1561C194.292 37.7084 194.739 38.1561 195.292 38.1561H203.732Z" fill="#171717"/>
<path d="M181.494 20.5865C182.046 20.5865 182.494 21.0342 182.494 21.5865V41.099C182.494 41.6513 182.046 42.099 181.494 42.099H178.1C177.548 42.099 177.1 41.6513 177.1 41.099V34.3931C177.1 33.8408 176.652 33.3931 176.1 33.3931H167.439C166.886 33.3931 166.439 33.8408 166.439 34.3931V41.099C166.439 41.6513 165.991 42.099 165.439 42.099H162.013C161.461 42.099 161.013 41.6513 161.013 41.099V21.5865C161.013 21.0342 161.461 20.5865 162.013 20.5865H165.439C165.991 20.5865 166.439 21.0342 166.439 21.5865V28.2294C166.439 28.7816 166.886 29.2294 167.439 29.2294H176.1C176.652 29.2294 177.1 28.7816 177.1 28.2294V21.5865C177.1 21.0342 177.548 20.5865 178.1 20.5865H181.494Z" fill="#171717"/>
<path d="M138.89 21.5865C138.89 21.0342 139.337 20.5865 139.89 20.5865H147.69C149.078 20.5865 150.75 20.5865 152.39 21.4697C154.22 22.4476 155.671 24.4979 155.671 26.9582C155.671 29.1978 154.504 31.2797 152.579 32.4468C150.939 33.4562 149.267 33.4562 147.501 33.4562H145.315C144.763 33.4562 144.315 33.9039 144.315 34.4562V41.099C144.315 41.6513 143.867 42.099 143.315 42.099H139.89C139.337 42.099 138.89 41.6513 138.89 41.099V21.5865ZM146.208 24.561H145.315C144.763 24.561 144.315 25.0087 144.315 25.561V28.5133C144.315 29.0655 144.763 29.5133 145.315 29.5133H146.081C147.816 29.5133 150.119 29.5133 150.119 26.9898C150.119 24.561 147.753 24.561 146.208 24.561Z" fill="#171717"/>
<path d="M131.527 20.5865C132.079 20.5865 132.527 21.0342 132.527 21.5865V41.099C132.527 41.6513 132.079 42.099 131.527 42.099H128.101C127.549 42.099 127.101 41.6513 127.101 41.099V31.7114C127.101 30.7756 125.931 30.3525 125.332 31.0719L121.581 35.5819C121.421 35.7739 121.184 35.885 120.935 35.885C120.685 35.885 120.448 35.7739 120.288 35.5819L116.537 31.0719C115.938 30.3525 114.768 30.7756 114.768 31.7114V41.099C114.768 41.6513 114.32 42.099 113.768 42.099H110.342C109.79 42.099 109.342 41.6513 109.342 41.099V21.5865C109.342 21.0342 109.79 20.5865 110.342 20.5865H113.637C113.934 20.5865 114.215 20.7182 114.405 20.946L120.156 27.8417C120.554 28.3189 121.286 28.3214 121.688 27.8469L127.527 20.9408C127.717 20.7161 127.997 20.5865 128.291 20.5865H131.527Z" fill="#171717"/>
<path d="M95.0578 20.5865C95.4531 20.5865 95.8112 20.8193 95.9717 21.1805L104.641 40.693C104.935 41.3543 104.451 42.099 103.727 42.099H100.161C99.7565 42.099 99.392 41.8556 99.2371 41.4822L97.9825 38.4575C97.8276 38.0841 97.463 37.8407 97.0588 37.8407H88.7971C88.3811 37.8407 88.0086 38.0982 87.8616 38.4873L86.7414 41.4524C86.5944 41.8415 86.2219 42.099 85.806 42.099H82.3008C81.5922 42.099 81.1084 41.3823 81.3734 40.7251L89.2413 21.2125C89.3939 20.8342 89.7609 20.5865 90.1688 20.5865H95.0578ZM94.6494 34.087C95.363 34.087 95.8469 33.3611 95.5725 32.7024L93.647 28.0812C93.299 27.2461 92.1092 27.2655 91.7887 28.1116L90.0383 32.7328C89.7905 33.3871 90.2738 34.087 90.9734 34.087H94.6494Z" fill="#171717"/>
<path d="M76.3462 21.7204C76.7162 21.8703 76.9533 22.233 76.9533 22.6322V24.7878C76.9533 25.5274 76.1816 26.0048 75.507 25.7014C74.0134 25.0296 72.0461 24.3086 70.0453 24.3086C66.891 24.3086 66.7964 25.8542 66.7964 26.075C66.7964 27.3683 68.9098 28.1253 72.001 29.2294C74.7138 30.2072 77.9312 31.8474 77.9312 36.0112C77.9312 40.995 72.7265 42.3829 69.5091 42.3829C66.4432 42.3829 63.5124 41.1661 62.3548 40.5609C62.0668 40.4103 61.9072 40.1078 61.9072 39.7829V37.4717C61.9072 36.6856 62.7697 36.2116 63.4549 36.597C65.0726 37.5069 67.0356 38.3454 69.3829 38.3454C70.0769 38.3454 72.6004 38.3138 72.6004 36.3897C72.6004 34.9702 71.3702 34.5286 68.5313 33.5508C65.44 32.4783 61.5286 30.9642 61.5286 26.422C61.5286 23.1415 64.2729 20.3026 69.6668 20.3026C71.2676 20.3026 73.2584 20.4698 76.3462 21.7204Z" fill="#171717"/>
<defs>
<linearGradient id="paint0_linear_3_6" x1="18.3592" y1="3.69648" x2="24.7664" y2="9.36442" gradientUnits="userSpaceOnUse">
<stop stop-color="#696969"/>
<stop offset="0.490385" stop-color="#B9B9B9"/>
<stop offset="1" stop-color="#696969"/>
</linearGradient>
<clipPath id="clip0_3_6">
<rect x="17.2503" width="10.843" height="9.61085" rx="4.80543" fill="white"/>
</clipPath>
<clipPath id="clip1_3_6">
<rect x="18.9753" width="9.11799" height="7.6394" rx="3.8197" fill="white"/>
</clipPath>
</defs>
</svg>
