<svg width="312" height="39" viewBox="0 0 312 39" fill="none" xmlns="http://www.w3.org/2000/svg">
<path d="M0.210938 2.68945C1.92187 2.53711 3.58008 2.43164 5.18555 2.37305C6.79102 2.30273 8.37891 2.26758 9.94922 2.26758C11.5195 2.26758 13.2246 2.30859 15.0645 2.39062C16.9043 2.46094 18.9141 2.57227 21.0938 2.72461L21.3047 3.09375L19.6523 7.36523L19.0723 7.18945C19.1543 6.7793 19.2129 6.39844 19.248 6.04688C19.2949 5.68359 19.3184 5.34375 19.3184 5.02734C19.3184 4.59375 19.2832 4.20117 19.2129 3.84961C17.7246 3.75586 16.3828 3.68555 15.1875 3.63867C14.0039 3.5918 12.9492 3.5625 12.0234 3.55078V24.9082C12.0234 25.3887 12.0645 25.7988 12.1465 26.1387C12.2402 26.4785 12.3926 26.7656 12.6035 27C12.8145 27.2344 13.0957 27.4277 13.4473 27.5801C13.7988 27.7207 14.2441 27.8379 14.7832 27.9316L14.6426 28.3535C13.9395 28.2598 13.3301 28.1895 12.8145 28.1426C12.2988 28.0957 11.8652 28.0723 11.5137 28.0723C11.1855 28.0723 10.8164 28.0957 10.4062 28.1426C10.0078 28.1895 9.5625 28.2598 9.07031 28.3535L8.96484 28.1777C9.19922 27.8379 9.31641 27.2168 9.31641 26.3145V3.55078C8.42578 3.5625 7.38281 3.5918 6.1875 3.63867C4.99219 3.68555 3.62695 3.75586 2.0918 3.84961C2.02148 4.23633 1.98633 4.64648 1.98633 5.08008C1.98633 5.70117 2.06836 6.4043 2.23242 7.18945L1.65234 7.36523L0 3.09375L0.210938 2.68945ZM32.3965 9.79102C35.0918 9.79102 37.207 10.6172 38.7422 12.2695C40.2773 13.9219 41.0449 16.2246 41.0449 19.1777C41.0449 20.8887 40.6523 22.4824 39.8672 23.959C39.082 25.4355 38.0156 26.6133 36.668 27.4922C35.3203 28.3594 33.8613 28.793 32.291 28.793C29.584 28.793 27.4629 27.9785 25.9277 26.3496C24.4043 24.709 23.6426 22.3887 23.6426 19.3887C23.6426 17.6074 24.0352 15.9844 24.8203 14.5195C25.6055 13.043 26.666 11.8887 28.002 11.0566C29.3496 10.2129 30.8145 9.79102 32.3965 9.79102ZM32.0449 11.0039C31.1191 11.0039 30.3164 11.1387 29.6367 11.4082C28.957 11.6777 28.4121 12.041 28.002 12.498C27.5918 12.9551 27.2637 13.5352 27.0176 14.2383C26.7715 14.9414 26.6016 15.6621 26.5078 16.4004C26.4258 17.1387 26.3848 17.9941 26.3848 18.9668C26.3848 20.5137 26.5664 21.8672 26.9297 23.0273C27.3047 24.1758 27.8027 25.0723 28.4238 25.7168C29.0449 26.3496 29.707 26.8184 30.4102 27.123C31.1133 27.416 31.8574 27.5625 32.6426 27.5625C33.5566 27.5625 34.3535 27.4219 35.0332 27.1406C35.7246 26.8477 36.2754 26.4727 36.6855 26.0156C37.0957 25.5469 37.4238 24.9609 37.6699 24.2578C37.916 23.543 38.0801 22.8223 38.1621 22.0957C38.2559 21.3691 38.3027 20.543 38.3027 19.6172C38.3027 18.3164 38.1797 17.1562 37.9336 16.1367C37.6875 15.1172 37.3594 14.291 36.9492 13.6582C36.5508 13.0254 36.0703 12.5039 35.5078 12.0938C34.957 11.6836 34.4004 11.4023 33.8379 11.25C33.2754 11.0859 32.6777 11.0039 32.0449 11.0039ZM64.4941 27.9668L60.3633 28.1074C59.7305 28.1309 59.168 28.1719 58.6758 28.2305C58.1953 28.2891 57.7852 28.3535 57.4453 28.4238L57.3398 28.248C57.5742 27.9082 57.6914 27.2871 57.6914 26.3848V7.83984C57.6914 7.04297 57.6562 6.38086 57.5859 5.85352C57.5156 5.32617 57.3809 4.91016 57.1816 4.60547C56.9941 4.28906 56.7305 4.07227 56.3906 3.95508C56.0625 3.82617 55.7051 3.76172 55.3184 3.76172C54.9316 3.76172 54.6914 3.76758 54.5977 3.7793L54.5273 3.26953C55.9453 3.08203 57.3398 2.91797 58.7109 2.77734C60.0938 2.63672 61.0312 2.56055 61.5234 2.54883C62.0156 2.52539 62.4902 2.51367 62.9473 2.51367C64.2246 2.51367 65.3555 2.5957 66.3398 2.75977C67.3359 2.91211 68.168 3.16992 68.8359 3.5332C69.5156 3.89648 70.0312 4.37109 70.3828 4.95703C70.7344 5.53125 70.9102 6.24023 70.9102 7.08398C70.9102 7.81055 70.7695 8.50195 70.4883 9.1582C70.207 9.81445 69.8145 10.4238 69.3105 10.9863C68.8184 11.5488 68.2383 12.0586 67.5703 12.5156C66.9023 12.9727 66.1816 13.3594 65.4082 13.6758V13.8164C66.3223 13.9336 67.2129 14.1387 68.0801 14.4316C68.959 14.7246 69.7383 15.1348 70.418 15.6621C71.0977 16.1777 71.6426 16.8223 72.0527 17.5957C72.4629 18.3574 72.668 19.2715 72.668 20.3379C72.668 21.5918 72.4277 22.6992 71.9473 23.6602C71.4785 24.6094 70.8574 25.4062 70.084 26.0508C69.3105 26.6836 68.4316 27.1641 67.4473 27.4922C66.4746 27.8086 65.4902 27.9668 64.4941 27.9668ZM60.3984 4.99219V26.9648L63.4219 27.1055C65.3672 27.1992 66.9316 26.7305 68.1152 25.6992C69.3105 24.6562 69.9082 23.0684 69.9082 20.9355C69.9082 19.8223 69.6914 18.8379 69.2578 17.9824C68.8242 17.1152 68.2207 16.4238 67.4473 15.9082C66.6855 15.3926 65.8125 15.0059 64.8281 14.748C63.8438 14.4902 62.7656 14.373 61.5938 14.3965V13.6406C62.707 13.6172 63.7559 13.377 64.7402 12.9199C65.7246 12.4629 66.5449 11.7715 67.2012 10.8457C67.8691 9.9082 68.2031 8.82422 68.2031 7.59375C68.2031 6.52734 67.9805 5.70703 67.5352 5.13281C67.1016 4.55859 66.5215 4.1543 65.7949 3.91992C65.0684 3.68555 64.2305 3.58008 63.2812 3.60352C62.332 3.62695 61.3477 3.70898 60.3281 3.84961C60.3164 3.84961 60.3047 3.84961 60.293 3.84961C60.3633 4.23633 60.3984 4.61719 60.3984 4.99219ZM78.3633 15.0469C78.3633 14.2617 78.3223 13.6055 78.2402 13.0781C78.1699 12.5508 78.0352 12.1289 77.8359 11.8125C77.6484 11.4961 77.3848 11.2734 77.0449 11.1445C76.7051 11.0156 76.1133 10.957 75.2695 10.9688L75.1992 10.6523C77.1094 10.0781 78.8848 9.79102 80.5254 9.79102C80.7715 10.4121 80.8945 11.0801 80.8945 11.7949V13.957L80.9648 14.0273C81.457 13.3477 81.9258 12.7441 82.3711 12.2168C82.8281 11.6895 83.291 11.25 83.7598 10.8984C84.2285 10.5469 84.7207 10.2832 85.2363 10.1074C85.752 9.91992 86.3262 9.82617 86.959 9.82617C87.3574 9.82617 87.7969 9.86133 88.2773 9.93164L87.2578 14.2207L86.6074 14.0273C86.6074 13.8516 86.5957 13.6113 86.5723 13.3066C86.5488 13.002 86.5137 12.7031 86.4668 12.4102C86.4316 12.1055 86.3789 11.8477 86.3086 11.6367C86.25 11.4141 86.1797 11.3027 86.0977 11.3027C85.7578 11.3027 85.4121 11.3789 85.0605 11.5312C84.7207 11.6719 84.3457 11.9062 83.9355 12.2344C83.5254 12.5625 83.0742 12.9902 82.582 13.5176C82.0898 14.0449 81.5273 14.6836 80.8945 15.4336V25.6641C80.8945 26.0391 80.9238 26.3438 80.9824 26.5781C81.041 26.8008 81.1641 26.9883 81.3516 27.1406C81.5391 27.293 81.8027 27.4277 82.1426 27.5449C82.4824 27.6621 82.9277 27.791 83.4785 27.9316L83.3379 28.3535C82.6582 28.2598 82.0781 28.1895 81.5977 28.1426C81.1289 28.0957 80.748 28.0723 80.4551 28.0723C79.7871 28.0723 79.0078 28.166 78.1172 28.3535L78.0117 28.1777C78.2461 27.8379 78.3633 27.2168 78.3633 26.3145V15.0469ZM93.0586 15.0469C93.0586 13.3828 92.8594 12.2695 92.4609 11.707C92.0742 11.1328 91.2422 10.8867 89.9648 10.9688L89.8945 10.6523C91.8281 10.0781 93.6035 9.79102 95.2207 9.79102C95.4668 10.4004 95.5898 11.0684 95.5898 11.7949V24.9082C95.5898 25.834 95.8066 26.5195 96.2402 26.9648C96.6738 27.4102 97.4414 27.7324 98.543 27.9316L98.4023 28.3535C97.0547 28.166 96.0117 28.0723 95.2734 28.0723C94.5469 28.0723 93.7266 28.166 92.8125 28.3535L92.707 28.1777C92.9414 27.8379 93.0586 27.2168 93.0586 26.3145V15.0469ZM91.2656 3.26953C92.3789 2.625 93.6387 2.08594 95.0449 1.65234C95.0449 2.625 95.2031 3.58594 95.5195 4.53516L95.291 4.85156C94.1777 4.92188 93.0176 5.23242 91.8105 5.7832C91.5176 4.97461 91.3359 4.13672 91.2656 3.26953ZM103.5 15.0469C103.5 14.2617 103.459 13.6055 103.377 13.0781C103.307 12.5508 103.172 12.1289 102.973 11.8125C102.785 11.4961 102.521 11.2734 102.182 11.1445C101.842 11.0156 101.479 10.9512 101.092 10.9512C100.717 10.9512 100.488 10.957 100.406 10.9688L100.336 10.6523C102.246 10.0781 104.021 9.79102 105.662 9.79102C105.908 10.4121 106.031 11.0801 106.031 11.7949V12.3047C106.711 11.8477 107.338 11.4492 107.912 11.1094C108.486 10.7695 109.049 10.4824 109.6 10.248C110.162 10.0137 110.736 9.83789 111.322 9.7207C111.908 9.60352 112.553 9.54492 113.256 9.54492C113.889 9.54492 114.516 9.62695 115.137 9.79102C115.77 9.95508 116.332 10.248 116.824 10.6699C117.328 11.0918 117.732 11.666 118.037 12.3926C118.354 13.1191 118.512 14.0391 118.512 15.1523V26.0859C118.512 26.3672 118.576 26.6016 118.705 26.7891C118.846 26.9766 119.021 27.1348 119.232 27.2637C119.455 27.3926 119.707 27.5039 119.988 27.5977C120.27 27.6797 120.562 27.7676 120.867 27.8613L120.709 28.2832C120.053 28.1426 119.18 28.0723 118.09 28.0723C117.422 28.0723 116.643 28.166 115.752 28.3535L115.646 28.1777C115.881 27.8379 115.998 27.2168 115.998 26.3145V15.8027C115.998 14.8184 115.904 14.0156 115.717 13.3945C115.529 12.7617 115.271 12.2695 114.943 11.918C114.627 11.5547 114.252 11.3027 113.818 11.1621C113.396 11.0215 112.945 10.9512 112.465 10.9512C111.879 10.9512 111.328 11.0039 110.812 11.1094C110.309 11.2148 109.799 11.3789 109.283 11.6016C108.779 11.8125 108.264 12.082 107.736 12.4102C107.209 12.7266 106.641 13.1016 106.031 13.5352V25.6641C106.031 26.0391 106.061 26.3438 106.119 26.5781C106.178 26.8008 106.301 26.9883 106.488 27.1406C106.676 27.293 106.939 27.4277 107.279 27.5449C107.619 27.6621 108.064 27.791 108.615 27.9316L108.475 28.3535C107.795 28.2598 107.215 28.1895 106.734 28.1426C106.266 28.0957 105.885 28.0723 105.592 28.0723C104.924 28.0723 104.145 28.166 103.254 28.3535L103.148 28.1777C103.383 27.8379 103.5 27.2168 103.5 26.3145V15.0469ZM140.396 32.5371C140.396 33.709 139.957 34.7461 139.078 35.6484C138.211 36.5625 137.086 37.248 135.703 37.7051C134.32 38.1738 132.826 38.4082 131.221 38.4082C129.99 38.4082 128.883 38.2441 127.898 37.916C126.914 37.5879 126.1 37.043 125.455 36.2812C124.811 35.5195 124.488 34.5938 124.488 33.5039C124.488 32.3672 124.986 31.3125 125.982 30.3398C126.979 29.3672 128.291 28.541 129.92 27.8613C128.443 27.5332 127.383 27.1758 126.738 26.7891C126.094 26.3906 125.771 25.7754 125.771 24.9434C125.771 24.2051 126 23.6133 126.457 23.168C126.914 22.7109 127.693 22.3418 128.795 22.0605C127.506 21.6621 126.498 20.9766 125.771 20.0039C125.057 19.0312 124.699 17.7715 124.699 16.2246C124.699 15.0996 125.027 14.0391 125.684 13.043C126.352 12.0469 127.225 11.2559 128.303 10.6699C129.393 10.084 130.529 9.79102 131.713 9.79102C133.072 9.79102 134.273 10.002 135.316 10.4238L141.082 9.79102L141.223 10.3887L139.957 11.6895L136.828 11.4082C138.035 12.4863 138.639 14.0449 138.639 16.084C138.639 17.1152 138.328 18.1172 137.707 19.0898C137.086 20.0625 136.23 20.8594 135.141 21.4805C134.051 22.1016 132.885 22.4121 131.643 22.4121C129.955 22.7051 128.871 22.9629 128.391 23.1855C127.922 23.4082 127.688 23.7656 127.688 24.2578C127.688 24.5508 128.01 24.8379 128.654 25.1191C129.299 25.3887 130.57 25.7637 132.469 26.2441C133.336 26.4551 134.068 26.6484 134.666 26.8242C135.264 26.9883 135.861 27.1816 136.459 27.4043C137.057 27.6152 137.543 27.832 137.918 28.0547C138.305 28.2773 138.668 28.5352 139.008 28.8281C139.359 29.1328 139.623 29.4609 139.799 29.8125C139.986 30.1758 140.133 30.5801 140.238 31.0254C140.344 31.4707 140.396 31.9746 140.396 32.5371ZM132.293 28.3184L131.572 28.1426C130.096 28.6934 128.93 29.4375 128.074 30.375C127.219 31.3125 126.791 32.2617 126.791 33.2227C126.791 33.9023 126.973 34.5 127.336 35.0156C127.711 35.543 128.209 35.9531 128.83 36.2461C129.451 36.5391 130.113 36.7559 130.816 36.8965C131.52 37.0371 132.252 37.1074 133.014 37.1074C136.447 37.1074 138.164 35.7656 138.164 33.082C138.164 31.7812 137.672 30.7676 136.688 30.041C135.715 29.3145 134.25 28.7402 132.293 28.3184ZM130.992 11.0391C129.516 11.0391 128.49 11.4199 127.916 12.1816C127.354 12.9316 127.072 14.1855 127.072 15.9434C127.072 16.7637 127.201 17.4961 127.459 18.1406C127.729 18.7734 128.062 19.2773 128.461 19.6523C128.859 20.0156 129.322 20.3203 129.85 20.5664C130.389 20.8008 130.887 20.959 131.344 21.041C131.812 21.123 132.275 21.1641 132.732 21.1641C133.928 21.1641 134.812 20.7363 135.387 19.8809C135.961 19.0254 136.248 17.8535 136.248 16.3652C136.248 15.5098 136.113 14.7539 135.844 14.0977C135.586 13.4297 135.264 12.9141 134.877 12.5508C134.502 12.1758 134.062 11.8711 133.559 11.6367C133.055 11.3906 132.598 11.2324 132.188 11.1621C131.777 11.0801 131.379 11.0391 130.992 11.0391ZM161.578 2.68945C163.289 2.53711 164.947 2.43164 166.553 2.37305C168.158 2.30273 169.746 2.26758 171.316 2.26758C172.887 2.26758 174.592 2.30859 176.432 2.39062C178.271 2.46094 180.281 2.57227 182.461 2.72461L182.672 3.09375L181.02 7.36523L180.439 7.18945C180.521 6.7793 180.58 6.39844 180.615 6.04688C180.662 5.68359 180.686 5.34375 180.686 5.02734C180.686 4.59375 180.65 4.20117 180.58 3.84961C179.092 3.75586 177.75 3.68555 176.555 3.63867C175.371 3.5918 174.316 3.5625 173.391 3.55078V24.9082C173.391 25.3887 173.432 25.7988 173.514 26.1387C173.607 26.4785 173.76 26.7656 173.971 27C174.182 27.2344 174.463 27.4277 174.814 27.5801C175.166 27.7207 175.611 27.8379 176.15 27.9316L176.01 28.3535C175.307 28.2598 174.697 28.1895 174.182 28.1426C173.666 28.0957 173.232 28.0723 172.881 28.0723C172.553 28.0723 172.184 28.0957 171.773 28.1426C171.375 28.1895 170.93 28.2598 170.438 28.3535L170.332 28.1777C170.566 27.8379 170.684 27.2168 170.684 26.3145V3.55078C169.793 3.5625 168.75 3.5918 167.555 3.63867C166.359 3.68555 164.994 3.75586 163.459 3.84961C163.389 4.23633 163.354 4.64648 163.354 5.08008C163.354 5.70117 163.436 6.4043 163.6 7.18945L163.02 7.36523L161.367 3.09375L161.578 2.68945ZM193.764 9.79102C196.459 9.79102 198.574 10.6172 200.109 12.2695C201.645 13.9219 202.412 16.2246 202.412 19.1777C202.412 20.8887 202.02 22.4824 201.234 23.959C200.449 25.4355 199.383 26.6133 198.035 27.4922C196.688 28.3594 195.229 28.793 193.658 28.793C190.951 28.793 188.83 27.9785 187.295 26.3496C185.771 24.709 185.01 22.3887 185.01 19.3887C185.01 17.6074 185.402 15.9844 186.188 14.5195C186.973 13.043 188.033 11.8887 189.369 11.0566C190.717 10.2129 192.182 9.79102 193.764 9.79102ZM193.412 11.0039C192.486 11.0039 191.684 11.1387 191.004 11.4082C190.324 11.6777 189.779 12.041 189.369 12.498C188.959 12.9551 188.631 13.5352 188.385 14.2383C188.139 14.9414 187.969 15.6621 187.875 16.4004C187.793 17.1387 187.752 17.9941 187.752 18.9668C187.752 20.5137 187.934 21.8672 188.297 23.0273C188.672 24.1758 189.17 25.0723 189.791 25.7168C190.412 26.3496 191.074 26.8184 191.777 27.123C192.48 27.416 193.225 27.5625 194.01 27.5625C194.924 27.5625 195.721 27.4219 196.4 27.1406C197.092 26.8477 197.643 26.4727 198.053 26.0156C198.463 25.5469 198.791 24.9609 199.037 24.2578C199.283 23.543 199.447 22.8223 199.529 22.0957C199.623 21.3691 199.67 20.543 199.67 19.6172C199.67 18.3164 199.547 17.1562 199.301 16.1367C199.055 15.1172 198.727 14.291 198.316 13.6582C197.918 13.0254 197.438 12.5039 196.875 12.0938C196.324 11.6836 195.768 11.4023 195.205 11.25C194.643 11.0859 194.045 11.0039 193.412 11.0039ZM222.1 32.5371C222.1 33.709 221.66 34.7461 220.781 35.6484C219.914 36.5625 218.789 37.248 217.406 37.7051C216.023 38.1738 214.529 38.4082 212.924 38.4082C211.693 38.4082 210.586 38.2441 209.602 37.916C208.617 37.5879 207.803 37.043 207.158 36.2812C206.514 35.5195 206.191 34.5938 206.191 33.5039C206.191 32.3672 206.689 31.3125 207.686 30.3398C208.682 29.3672 209.994 28.541 211.623 27.8613C210.146 27.5332 209.086 27.1758 208.441 26.7891C207.797 26.3906 207.475 25.7754 207.475 24.9434C207.475 24.2051 207.703 23.6133 208.16 23.168C208.617 22.7109 209.396 22.3418 210.498 22.0605C209.209 21.6621 208.201 20.9766 207.475 20.0039C206.76 19.0312 206.402 17.7715 206.402 16.2246C206.402 15.0996 206.73 14.0391 207.387 13.043C208.055 12.0469 208.928 11.2559 210.006 10.6699C211.096 10.084 212.232 9.79102 213.416 9.79102C214.775 9.79102 215.977 10.002 217.02 10.4238L222.785 9.79102L222.926 10.3887L221.66 11.6895L218.531 11.4082C219.738 12.4863 220.342 14.0449 220.342 16.084C220.342 17.1152 220.031 18.1172 219.41 19.0898C218.789 20.0625 217.934 20.8594 216.844 21.4805C215.754 22.1016 214.588 22.4121 213.346 22.4121C211.658 22.7051 210.574 22.9629 210.094 23.1855C209.625 23.4082 209.391 23.7656 209.391 24.2578C209.391 24.5508 209.713 24.8379 210.357 25.1191C211.002 25.3887 212.273 25.7637 214.172 26.2441C215.039 26.4551 215.771 26.6484 216.369 26.8242C216.967 26.9883 217.564 27.1816 218.162 27.4043C218.76 27.6152 219.246 27.832 219.621 28.0547C220.008 28.2773 220.371 28.5352 220.711 28.8281C221.062 29.1328 221.326 29.4609 221.502 29.8125C221.689 30.1758 221.836 30.5801 221.941 31.0254C222.047 31.4707 222.1 31.9746 222.1 32.5371ZM213.996 28.3184L213.275 28.1426C211.799 28.6934 210.633 29.4375 209.777 30.375C208.922 31.3125 208.494 32.2617 208.494 33.2227C208.494 33.9023 208.676 34.5 209.039 35.0156C209.414 35.543 209.912 35.9531 210.533 36.2461C211.154 36.5391 211.816 36.7559 212.52 36.8965C213.223 37.0371 213.955 37.1074 214.717 37.1074C218.15 37.1074 219.867 35.7656 219.867 33.082C219.867 31.7812 219.375 30.7676 218.391 30.041C217.418 29.3145 215.953 28.7402 213.996 28.3184ZM212.695 11.0391C211.219 11.0391 210.193 11.4199 209.619 12.1816C209.057 12.9316 208.775 14.1855 208.775 15.9434C208.775 16.7637 208.904 17.4961 209.162 18.1406C209.432 18.7734 209.766 19.2773 210.164 19.6523C210.562 20.0156 211.025 20.3203 211.553 20.5664C212.092 20.8008 212.59 20.959 213.047 21.041C213.516 21.123 213.979 21.1641 214.436 21.1641C215.631 21.1641 216.516 20.7363 217.09 19.8809C217.664 19.0254 217.951 17.8535 217.951 16.3652C217.951 15.5098 217.816 14.7539 217.547 14.0977C217.289 13.4297 216.967 12.9141 216.58 12.5508C216.205 12.1758 215.766 11.8711 215.262 11.6367C214.758 11.3906 214.301 11.2324 213.891 11.1621C213.48 11.0801 213.082 11.0391 212.695 11.0391ZM225.615 19.5117C225.615 18.2695 225.82 17.0684 226.23 15.9082C226.641 14.7363 227.227 13.6992 227.988 12.7969C228.75 11.8828 229.67 11.1562 230.748 10.6172C231.838 10.0664 233.057 9.79102 234.404 9.79102C235.248 9.79102 236.045 9.9375 236.795 10.2305C237.545 10.5117 238.195 10.957 238.746 11.5664C239.309 12.1641 239.748 12.9375 240.064 13.8867C240.393 14.8242 240.557 15.9434 240.557 17.2441L239.871 17.877H228.393C228.369 18.0762 228.357 18.2695 228.357 18.457C228.357 18.6445 228.357 18.832 228.357 19.0195C228.357 20.2969 228.504 21.457 228.797 22.5C229.102 23.543 229.506 24.4395 230.01 25.1895C230.525 25.9277 231.129 26.502 231.82 26.9121C232.512 27.3223 233.244 27.5273 234.018 27.5273C234.51 27.5273 235.008 27.4922 235.512 27.4219C236.027 27.3398 236.525 27.2168 237.006 27.0527C237.498 26.8887 237.973 26.6777 238.43 26.4199C238.887 26.1621 239.309 25.8516 239.695 25.4883L240.416 26.2441C239.49 27.1582 238.482 27.8086 237.393 28.1953C236.303 28.5938 235.043 28.793 233.613 28.793C232.488 28.793 231.434 28.5762 230.449 28.1426C229.477 27.709 228.633 27.0879 227.918 26.2793C227.203 25.4707 226.641 24.498 226.23 23.3613C225.82 22.2129 225.615 20.9297 225.615 19.5117ZM234.018 11.0039C232.201 11.0039 230.871 11.4785 230.027 12.4277C229.184 13.3652 228.674 14.7188 228.498 16.4883H238.289C238.195 14.5664 237.762 13.1719 236.988 12.3047C236.227 11.4375 235.236 11.0039 234.018 11.0039ZM249.152 23.2207C249.152 24.8145 249.328 25.916 249.68 26.5254C250.031 27.123 250.6 27.4219 251.385 27.4219C252.24 27.4219 253.283 27.0996 254.514 26.4551L255.059 27.2109C253.125 28.2656 251.543 28.793 250.312 28.793C249.656 28.793 249.123 28.7344 248.713 28.6172C248.303 28.5 247.928 28.2715 247.588 27.9316C247.248 27.5918 247.002 27.0938 246.85 26.4375C246.709 25.7695 246.639 24.9082 246.639 23.8535V11.9355L244.002 12.0938V10.9688C244.928 10.7695 245.807 10.6406 246.639 10.582V8.08594C247.635 7.52344 248.449 6.7207 249.082 5.67773L249.627 5.88867C249.428 6.35742 249.299 6.89062 249.24 7.48828C249.182 8.07422 249.152 9.07031 249.152 10.4766H255.199V11.0918C254.707 11.291 254.209 11.4609 253.705 11.6016C253.201 11.7305 252.68 11.7949 252.141 11.7949H249.152V23.2207ZM272.654 15.8027C272.654 14.8184 272.561 14.0156 272.373 13.3945C272.186 12.7617 271.928 12.2695 271.6 11.918C271.283 11.5547 270.908 11.3027 270.475 11.1621C270.053 11.0215 269.602 10.9512 269.121 10.9512C268.535 10.9512 267.984 11.0039 267.469 11.1094C266.965 11.2148 266.455 11.3789 265.939 11.6016C265.436 11.8125 264.92 12.082 264.393 12.4102C263.865 12.7266 263.297 13.1016 262.688 13.5352V25.6641C262.688 26.0391 262.717 26.3438 262.775 26.5781C262.834 26.8008 262.957 26.9883 263.145 27.1406C263.332 27.293 263.596 27.4277 263.936 27.5449C264.275 27.6621 264.721 27.791 265.271 27.9316L265.131 28.3535C264.451 28.2598 263.871 28.1895 263.391 28.1426C262.922 28.0957 262.447 28.0723 261.967 28.0723C261.486 28.0723 260.801 28.166 259.91 28.3535L259.805 28.1777C260.039 27.8379 260.156 27.2168 260.156 26.3145V5.25586C260.156 4.4707 260.115 3.81445 260.033 3.28711C259.963 2.75977 259.828 2.33789 259.629 2.02148C259.441 1.70508 259.178 1.48242 258.838 1.35352C258.498 1.22461 258.135 1.16016 257.748 1.16016C257.373 1.16016 257.145 1.16602 257.062 1.17773L256.992 0.861328C258.902 0.287109 260.678 0 262.318 0C262.564 0.621094 262.688 1.28906 262.688 2.00391V12.3047C263.496 11.7539 264.229 11.3027 264.885 10.9512C265.553 10.5879 266.174 10.3008 266.748 10.0898C267.334 9.87891 267.885 9.73242 268.4 9.65039C268.928 9.56836 269.461 9.52734 270 9.52734C270.738 9.52734 271.412 9.62695 272.021 9.82617C272.643 10.0137 273.176 10.3301 273.621 10.7754C274.066 11.209 274.424 11.7832 274.693 12.498C274.963 13.2129 275.121 14.0977 275.168 15.1523V26.0859C275.168 26.3672 275.232 26.6016 275.361 26.7891C275.502 26.9766 275.678 27.1348 275.889 27.2637C276.111 27.3926 276.363 27.5039 276.645 27.5977C276.926 27.6797 277.219 27.7676 277.523 27.8613L277.365 28.2832C276.709 28.1426 275.941 28.0723 275.062 28.0723C274.184 28.0723 273.299 28.166 272.408 28.3535L272.303 28.1777C272.537 27.8379 272.654 27.2168 272.654 26.3145V15.8027ZM280.951 19.5117C280.951 18.2695 281.156 17.0684 281.566 15.9082C281.977 14.7363 282.562 13.6992 283.324 12.7969C284.086 11.8828 285.006 11.1562 286.084 10.6172C287.174 10.0664 288.393 9.79102 289.74 9.79102C290.584 9.79102 291.381 9.9375 292.131 10.2305C292.881 10.5117 293.531 10.957 294.082 11.5664C294.645 12.1641 295.084 12.9375 295.4 13.8867C295.729 14.8242 295.893 15.9434 295.893 17.2441L295.207 17.877H283.729C283.705 18.0762 283.693 18.2695 283.693 18.457C283.693 18.6445 283.693 18.832 283.693 19.0195C283.693 20.2969 283.84 21.457 284.133 22.5C284.438 23.543 284.842 24.4395 285.346 25.1895C285.861 25.9277 286.465 26.502 287.156 26.9121C287.848 27.3223 288.58 27.5273 289.354 27.5273C289.846 27.5273 290.344 27.4922 290.848 27.4219C291.363 27.3398 291.861 27.2168 292.342 27.0527C292.834 26.8887 293.309 26.6777 293.766 26.4199C294.223 26.1621 294.645 25.8516 295.031 25.4883L295.752 26.2441C294.826 27.1582 293.818 27.8086 292.729 28.1953C291.639 28.5938 290.379 28.793 288.949 28.793C287.824 28.793 286.77 28.5762 285.785 28.1426C284.812 27.709 283.969 27.0879 283.254 26.2793C282.539 25.4707 281.977 24.498 281.566 23.3613C281.156 22.2129 280.951 20.9297 280.951 19.5117ZM289.354 11.0039C287.537 11.0039 286.207 11.4785 285.363 12.4277C284.52 13.3652 284.01 14.7188 283.834 16.4883H293.625C293.531 14.5664 293.098 13.1719 292.324 12.3047C291.562 11.4375 290.572 11.0039 289.354 11.0039ZM301.781 15.0469C301.781 14.2617 301.74 13.6055 301.658 13.0781C301.588 12.5508 301.453 12.1289 301.254 11.8125C301.066 11.4961 300.803 11.2734 300.463 11.1445C300.123 11.0156 299.531 10.957 298.688 10.9688L298.617 10.6523C300.527 10.0781 302.303 9.79102 303.943 9.79102C304.189 10.4121 304.312 11.0801 304.312 11.7949V13.957L304.383 14.0273C304.875 13.3477 305.344 12.7441 305.789 12.2168C306.246 11.6895 306.709 11.25 307.178 10.8984C307.646 10.5469 308.139 10.2832 308.654 10.1074C309.17 9.91992 309.744 9.82617 310.377 9.82617C310.775 9.82617 311.215 9.86133 311.695 9.93164L310.676 14.2207L310.025 14.0273C310.025 13.8516 310.014 13.6113 309.99 13.3066C309.967 13.002 309.932 12.7031 309.885 12.4102C309.85 12.1055 309.797 11.8477 309.727 11.6367C309.668 11.4141 309.598 11.3027 309.516 11.3027C309.176 11.3027 308.83 11.3789 308.479 11.5312C308.139 11.6719 307.764 11.9062 307.354 12.2344C306.943 12.5625 306.492 12.9902 306 13.5176C305.508 14.0449 304.945 14.6836 304.312 15.4336V25.6641C304.312 26.0391 304.342 26.3438 304.4 26.5781C304.459 26.8008 304.582 26.9883 304.77 27.1406C304.957 27.293 305.221 27.4277 305.561 27.5449C305.9 27.6621 306.346 27.791 306.896 27.9316L306.756 28.3535C306.076 28.2598 305.496 28.1895 305.016 28.1426C304.547 28.0957 304.166 28.0723 303.873 28.0723C303.205 28.0723 302.426 28.166 301.535 28.3535L301.43 28.1777C301.664 27.8379 301.781 27.2168 301.781 26.3145V15.0469Z" fill="black"/>
</svg>
